<?xml version="1.0" encoding="UTF-8" standalone="no"?>
<svg
   xmlns:dc="http://purl.org/dc/elements/1.1/"
   xmlns:cc="http://creativecommons.org/ns#"
   xmlns:rdf="http://www.w3.org/1999/02/22-rdf-syntax-ns#"
   xmlns:svg="http://www.w3.org/2000/svg"
   xmlns="http://www.w3.org/2000/svg"
   xmlns:sodipodi="http://sodipodi.sourceforge.net/DTD/sodipodi-0.dtd"
   xmlns:inkscape="http://www.inkscape.org/namespaces/inkscape"
   version="1.1"
   id="svg2"
   width="512"
   height="512"
   viewBox="0 0 512 512"
   sodipodi:docname="top-hat-logo-color.svg"
   inkscape:version="1.0.1 (3bc2e813f5, 2020-09-07)"
   inkscape:export-filename="/home/andre/Documents/treact/public/logo192.png"
   inkscape:export-xdpi="36"
   inkscape:export-ydpi="36">
  <metadata
     id="metadata8">
    <rdf:RDF>
      <cc:Work
         rdf:about="">
        <dc:format>image/svg+xml</dc:format>
        <dc:type
           rdf:resource="http://purl.org/dc/dcmitype/StillImage" />
        <dc:title />
      </cc:Work>
    </rdf:RDF>
  </metadata>
  <defs
     id="defs6">
    <clipPath
       clipPathUnits="userSpaceOnUse"
       id="clipPath840">
      <path
         id="path842"
         style="fill:#6163ff;fill-opacity:0;stroke-width:1.45893"
         d="M -323.06776,-98.193837 H 458.52195 V 228.11574 h -781.58971 z" />
    </clipPath>
    <clipPath
       clipPathUnits="userSpaceOnUse"
       id="clipPath848">
      <rect
         style="fill:#6163ff;fill-opacity:0"
         id="rect850"
         width="396.22073"
         height="365.80856"
         x="-328.77557"
         y="-464.897" />
    </clipPath>
  </defs>
  <sodipodi:namedview
     pagecolor="#ffffff"
     bordercolor="#666666"
     borderopacity="1"
     objecttolerance="10"
     gridtolerance="10"
     guidetolerance="10"
     inkscape:pageopacity="0"
     inkscape:pageshadow="2"
     inkscape:window-width="1080"
     inkscape:window-height="1883"
     id="namedview4"
     showgrid="false"
     inkscape:zoom="0.86938226"
     inkscape:cx="187.01415"
     inkscape:cy="398.45008"
     inkscape:window-x="1920"
     inkscape:window-y="0"
     inkscape:window-maximized="1"
     inkscape:current-layer="g10"
     inkscape:document-rotation="0" />
  <g
     inkscape:groupmode="layer"
     inkscape:label="Image"
     id="g10">
    <path
       style="fill:#3c0d99;fill-opacity:1"
       d="m -69.928418,5.4363022 c 0,-2.43196 0.50188,-3.03078 3,-3.57946 l 3,-0.65891 V -23.615628 c 0,-26.6327 0.11816,-26.02753 -5.08179,-26.02753 -1.45814,0 -1.91821,-0.70866 -1.91821,-2.95469 0,-2.61692 0.42868,-3.03874 3.75,-3.68998 2.0625,-0.40441 6,-0.7623 8.75,-0.79531 4.14196,-0.0497 5.15731,0.29803 5.9167,2.02641 l 0.9167,2.08644 4.39303,-2.45531 c 3.5581,-1.98867 5.39689,-2.37207 9.67493,-2.0173 10.32227,0.85601 15.59864,7.87468 15.59864,20.74944 0,9.21202 -1.43375,14.02877 -5.63772,18.94016 -4.12634,4.8207 -9.91219,7.20752 -17.56031,7.2441 l -5.8932,0.0282 0.29562,6.1689202 0.29561,6.16893 3.75,0.31037 c 3.4125,0.28243 3.75,0.57493 3.75,3.25 v 2.93963 h -13.5 -13.5 v -2.92054 z m 31.33786,-25.0691402 c 4.40276,-5.23238 4.97757,-21.41968 0.9529,-26.83481 -2.07325,-2.78953 -6.39302,-3.86863 -10.92913,-2.73014 -2.35356,0.59071 -2.36163,0.64505 -2.36163,15.90702 0,8.42285 0.3,15.61428 0.66667,15.98094 0.36666,0.36667 2.57666,0.66667 4.9111,0.66667 3.48516,0 4.69446,-0.53482 6.76009,-2.98968 z m -69.081462,7.92229 c -4.60486,-1.40048 -9.97007,-7.15556 -11.31007,-12.13194 -0.62403,-2.31747 -0.97974,-7.90731 -0.79047,-12.42186 0.3019,-7.20067 0.71405,-8.74045 3.35752,-12.54354 4.18622,-6.02262 10.08664,-8.8414 18.448512,-8.81331 15.43116,0.0518 22.87271,8.83045 21.79984,25.71673 -0.56983,8.96881 -4.1544,15.48603 -10.26173,18.65715 -4.52895,2.35159 -15.867442,3.17181 -21.243602,1.53677 z m 14.748842,-7.43819 c 1.98857,-2.11673 2.42259,-3.8148 2.79665,-10.94143 0.82623,-15.74183 -1.37035,-21.55299 -8.1469,-21.55299 -4.592862,0 -6.528512,2.52456 -7.749712,10.1075 -1.55122,9.63221 0.45342,21.8319 3.91973,23.85438 2.973652,1.73503 6.736762,1.1335 9.180232,-1.46746 z m 178.25332,7.07947 c -6.43516,-2.91864 -8.082,-12.57278 -2.96478,-17.38016 2.86037,-2.68718 9.86783,-5.18962 14.58195,-5.20738 1.99335,-0.008 4.687868,-0.29836 5.987828,-0.64633 2.14301,-0.57364 2.31659,-1.04937 1.86021,-5.09836 -0.28828,-2.55762 -1.34564,-5.30797 -2.47467,-6.437 -2.673318,-2.67332 -10.010418,-2.62652 -15.519178,0.099 -3.49058,1.72701 -4.40598,1.84885 -5.52007,0.73476 -1.11409,-1.11409 -0.89081,-1.86412 1.34641,-4.52291 3.51581,-4.17831 7.09019,-5.93922 13.60761,-6.70377 10.591868,-1.24251 17.774168,2.97092 19.753578,11.58826 0.56851,2.475 1.04466,9.7875 1.0581,16.25 l 0.0245,11.75 h 3.06642 c 2.74557,0 3.03332,0.28364 2.75,2.71071 -0.26523,2.2722 -0.9635,2.84501 -4.31642,3.54094 -4.85705,1.00813 -8.28785,0.26465 -11.164,-2.4193 l -2.164,-2.01939 -2.90395,2.14698 c -3.788258,2.80079 -12.558008,3.63291 -17.009488,1.61395 z m 16.273558,-7.02286 c 3.32248,-1.38823 3.46788,-1.66551 3.46788,-6.61355 v -5.16457 l -4.75,0.70241 c -5.637298,0.83362 -8.255638,2.87803 -8.234688,6.42967 0.0178,3.01314 0.88115,4.56538 2.98469,5.36612 2.32342,0.88444 2.82403,0.82925 6.532118,-0.72008 z m 41.96788,7.72335 c -9.30838,-1.79914 -10.5,-4.48458 -10.5,-23.66281 v -14.45266 l -3,-0.65891 c -4.35341,-0.95617 -4.19712,-4.73397 0.25,-6.0432 2.86568,-0.84366 3.53005,-1.755 5.61828,-7.7068 2.29312,-6.53577 2.47561,-6.75 5.75,-6.75 h 3.38172 v 7 7 h 7.06336 7.06336 l -0.31336,3.25 c -0.31334,3.24984 -0.31366,3.25001 -6.56336,3.54772 l -6.25,0.29771 v 13.75229 c 0,9.36288 0.38301,14.13529 1.2,14.95228 1.50012,1.50012 6.26913,1.55448 8.98241,0.10238 1.60177,-0.85725 2.39398,-0.75456 3.61741,0.46887 1.42199,1.42199 1.38839,1.7633 -0.3643,3.7 -3.4806,3.84602 -10.72276,6.21067 -15.93552,5.20313 z m -479.50616,-27.45044 -8.49384,-27.25883 -3.25,-0.92721 c -2.69136,-0.76784 -3.25,-1.41802 -3.25,-3.78256 v -2.85534 h 13.5 13.5 v 2.95469 c 0,2.59453 -0.43393,3.03609 -3.55996,3.62254 -2.01305,0.37765 -3.38011,1.15777 -3.14607,1.79531 0.22765,0.6201 2.84124,10.01496 5.80798,20.87746 2.96673,10.8625 5.62086,19.75 5.89806,19.75 0.2772,0 2.68292,-7.7625 5.34603,-17.25 5.34665,-19.04775 5.40578,-21.84805 0.52,-24.62703 -2.04885,-1.16535 -2.85517,-2.39836 -2.85971,-4.37297 l -0.006,-2.75 h 13 13 v 2.95469 c 0,2.58505 -0.43785,3.03683 -3.5,3.61129 -2.34076,0.43913 -3.48437,1.19936 -3.4528,2.29531 0.10282,3.5701 10.79915,40.54199 11.32322,39.13871 0.74297,-1.98945 10.62763,-39.31823 10.62873,-40.13871 4.7e-4,-0.35129 -1.60157,-0.93933 -3.56009,-1.30675 -3.14612,-0.59021 -3.52473,-0.98178 -3.25,-3.36129 l 0.31094,-2.69325 h 10.5 10.5 l 0.31095,2.69325 c 0.27479,2.38008 -0.10367,2.77104 -3.25467,3.36217 -3.28732,0.61671 -3.68731,1.08752 -5.12474,6.03208 -0.85751,2.94974 -4.35753,15.16176 -7.77781,27.13783 l -6.2187,21.77467 -6.01679,0.29251 -6.01678,0.2925 -4.77968,-16.86123 c -2.62883,-9.27369 -5.11536,-17.40437 -5.52562,-18.0682 -0.4188,-0.67763 -2.91091,6.58883 -5.68243,16.56873 l -4.93648,17.77569 -5.99479,0.29139 -5.99478,0.29139 z m 79.00616,24.69511 c 0,-1.89955 0.64445,-2.61654 2.75,-3.05956 5.93972,-1.24974 5.72676,-0.41782 6.03276,-23.56763 0.15551,-11.76552 0.0551,-22.32204 -0.22314,-23.45893 -0.33967,-1.38788 -1.74689,-2.37362 -4.28276,-3 -3.1132,-0.769 -3.77686,-1.37222 -3.77686,-3.43293 v -2.5 h 19.5 c 17.86425,0 19.83554,0.17595 23.5,2.09753 5.69935,2.98865 7.91176,7.29733 7.91176,15.40821 0,5.38617 -0.50271,7.47374 -2.70455,11.23089 -3.70485,6.32185 -11.07995,9.98941 -20.26137,10.07579 l -6.52069,0.0614 0.28743,8.06311 0.28742,8.06312 3,0.27421 c 6.31095,0.57683 7.5,1.17054 7.5,3.74484 v 2.48095 h -16.5 -16.5 v -2.48095 z m 33.3307,-27.56454 c 3.00432,-2.3632 4.65577,-7.41067 4.66372,-14.25417 0.0103,-8.84042 -4.3771,-13.19392 -12.61578,-12.51837 l -3.87864,0.31803 -0.28135,12.94711 c -0.15474,7.12092 -0.0564,13.53342 0.21862,14.25 0.81863,2.13332 8.87693,1.63018 11.89343,-0.7426 z m 54.85288,27.29984 c 0.28561,-2.47832 0.82757,-2.82652 5.56642,-3.57627 l 5.25,-0.83063 v -24.42372 -24.42373 h -2.9349 c -6.2687,0 -7.68381,1.32325 -9.54734,8.92754 -1.70837,6.97114 -1.78013,7.07246 -5.00885,7.07246 -2.55164,0 -3.40892,-0.49731 -3.87862,-2.25 -0.7798,-2.9098 -0.7798,-14.5902 0,-17.5 l 0.60297,-2.25 h 27.76674 27.76674 l 0.60297,2.25 c 0.78996,2.9477 0.78758,9.32332 -0.006,15.11043 -0.60849,4.43939 -0.77643,4.63957 -3.89228,4.63957 -3.20278,0 -3.28469,-0.1156 -4.97814,-7.02586 -1.88413,-7.68988 -3.16178,-8.97414 -8.92755,-8.97414 h -3.56574 v 24.42373 24.42372 l 5.25,0.83063 c 4.73885,0.74975 5.28081,1.09795 5.56642,3.57627 l 0.31642,2.74565 h -18.13284 -18.13284 z m 175.8164223,0.2647 c 0,-1.89374 0.65089,-2.62357 2.75,-3.08352 1.5124997,-0.33142 3.3206697,-0.779 4.0181597,-0.99464 0.98756,-0.30531 1.20882,-5.64411 1,-24.12949 l -0.26816,-23.73743 -3.75,-0.88632 c -3.2677497,-0.77235 -3.7499997,-1.25935 -3.7499997,-3.78699 v -2.90066 h 13.9999997 14 v 2.85534 c 0,2.364 -0.55925,3.01535 -3.25,3.78522 l -3.25,0.92988 -0.28621,9.71478 -0.28621,9.71478 h 12.07242 12.07242 l -0.28621,-9.68861 -0.28621,-9.68861 -3.25,-0.83998 c -2.56339,-0.66253 -3.25,-1.36211 -3.25,-3.31139 v -2.47141 h 14 14 v 2.40066 c 0,1.94977 -0.70433,2.56723 -3.75,3.28752 l -3.75,0.88685 v 23.96248 23.96249 l 3.5,0.5 c 2.92497,0.41785 3.55199,0.95181 3.81642,3.25 l 0.31642,2.75 h -14.13284 -14.13284 l 0.31642,-2.69221 c 0.2455,-2.08883 1.04481,-2.87966 3.56642,-3.52859 l 3.25,-0.83638 v -10.47141 -10.47141 h -12.03383 -12.03383 l 0.28383,10.68833 0.28383,10.68833 3.25,0.84026 c 2.56331,0.66273 3.25,1.36244 3.25,3.31167 v 2.47141 h -14 H 7.0715823 Z M -76.928418,-112.17885 c 3.025,-1.40638 7.18405,-3.71999 9.24232,-5.14136 3.70733,-2.56014 9.75768,-10.54438 9.75768,-12.87654 0,-0.66588 -3.75516,-2.38149 -8.3448,-3.81247 -10.1886,-3.17664 -27.79801,-12.01018 -40.943952,-20.53902 -5.38381,-3.49292 -9.64354,-6.49596 -9.46608,-6.67343 0.17747,-0.17746 5.25741,1.24904 11.28875,3.17 11.133692,3.54605 47.968292,12.83198 63.466082,15.99966 4.675,0.95555 8.8728,2.05875 9.32844,2.45155 0.45565,0.3928 -0.36,3.05948 -1.81256,5.92596 -7.1068,14.02459 -20.42032,21.71998 -40.51588,23.41871 l -7.5,0.63399 z m -45.630292,-2.32131 c -15.11417,-5.26141 -27.9883,-15.88725 -36.32781,-29.98365 -3.85956,-6.52387 -9.19028,-20.97246 -10.48146,-28.40935 -0.75182,-4.33031 -1.00382,-4.26916 12.78868,-3.10326 l 7.65088,0.64673 v 7.14317 c 0,20.74447 11.99587,40.48755 31.55788,51.93871 9.38937,5.49632 7.4354,6.16205 -5.18817,1.76765 z m -71.14618,-29.11388 c -2.90206,-1.04429 -6.95206,-2.92361 -9,-4.17626 -5.61481,-3.43438 -14.19039,-11.86758 -16.32726,-16.05618 -3.90259,-7.64971 -1.46627,-20.93854 5.51742,-30.09463 8.47985,-11.11766 27.6366,-16.43997 49.58631,-13.77655 20.69987,2.51177 30.21575,5.27618 94.524832,27.45987 20.54315,7.08645 48.00772,14.14788 60.0408903,15.43715 14.74148,1.57944 24.5449697,-1.23821 25.2592397,-7.25985 0.32649,-2.7525 -2.11445,-6.5484 -4.22995,-6.57798 -0.60225,-0.008 -1.7700097,-0.45842 -2.5950097,-1 -1.33333,-0.87528 -1.33333,-1.0941 0,-1.96938 4.2722497,-2.80455 13.8623397,1.06748 16.5211297,6.67046 3.95237,8.329 -0.75253,17.56962 -10.61322,20.84482 -7.5347297,2.50263 -21.1755597,3.5178 -32.40399,2.41154 -17.59132,-1.73314 -37.62131,-7.49302 -95.003922,-27.31959 -37.72038,-13.03297 -60.77783,-16.25316 -78.69088,-10.98992 -10.13829,2.97885 -14.80912,8.45103 -14.80912,17.34984 0,7.4803 2.00356,11.14609 11.47049,20.98686 4.69123,4.87649 8.52951,9.12832 8.52951,9.44851 0,0.99382 -2.29389,0.58419 -7.77647,-1.38871 z m 150.776472,-42.5875 c -6.875,-1.81958 -21.05,-6.31006 -31.5,-9.97884 -47.200082,-16.57099 -65.800332,-22.17263 -81.750002,-24.61975 -5.92815,-0.90954 -7.75,-1.56379 -7.75,-2.78311 0,-0.87673 -0.47265,-8.78637 -1.05034,-17.57698 -1.76946,-26.92571 -4.99046,-44.10344 -10.63136,-56.69741 -1.40775,-3.14296 -2.28558,-6.42842 -1.95073,-7.30101 0.95715,-2.49429 8.41094,-5.27235 19.21,-7.15966 12.72626,-2.22412 73.870022,-2.56262 93.422432,-0.51721 14.92303,1.56113 31.1471,4.69994 35.24401,6.81854 3.21092,1.66042 3.23998,2.3242 0.43233,9.87381 -3.9341,10.57856 -4.71893,58.13009 -1.62305,98.33803 0.60719,7.88592 0.95609,14.46716 0.77534,14.62498 -0.18074,0.15781 -5.95363,-1.20181 -12.82863,-3.02139 z"
       id="path844"
       clip-path="url(#clipPath848)"
       transform="matrix(1.8338225,0,0,1.8338225,439.68016,622.24482)" />
  </g>
</svg>
